<svg width="256" height="256" viewBox="0 0 256 256" fill="none" xmlns="http://www.w3.org/2000/svg">
<g clip-path="url(#clip0_17_29)">
<path d="M136.587 0C138.977 7.38538 141.113 14.5162 143.075 20.5234C146.569 31.2212 149.688 38.9799 153.381 44.3623C156.637 49.1085 159.667 54.5603 162.391 59.4971C165.248 64.6761 167.881 69.506 170.746 74.0645C176.733 83.5901 181.86 88.7356 186.785 90.6475C189.202 91.5855 195.776 92.616 206.303 93.1826C216.067 93.7081 227.101 93.7641 236.984 93.7637C243.905 93.7634 250.873 93.7227 256 93.874V129.328C255.834 129.392 255.663 129.459 255.486 129.529C253.491 130.325 250.99 131.453 248.172 132.918C242.506 135.864 235.933 139.977 229.817 145.113C225.236 148.961 219.255 153.274 213.857 157.29C208.169 161.523 202.515 165.861 197.397 170.476C186.576 180.235 181.16 188.618 180.642 195.952C179.775 208.222 180.308 218.076 180.439 230.784C180.519 238.444 180.427 246.627 179.691 256H135.231C133.757 249.588 133.075 245.519 131.484 239.279C128.64 228.12 124.311 216.878 113.567 205.284C109.771 201.188 106.464 197.008 103.701 193.551C100.795 189.913 98.4986 187.087 96.1338 184.67C91.8755 180.318 88.0207 177.912 82.0674 177.14C69.8762 175.557 51.5746 173.584 34.7422 172.079C19.7059 170.735 6.99535 169.879 0.598633 169.825C0.401459 169.903 0.201067 169.979 0 170.058V134.972C2.01213 133.877 3.52636 132.927 5.08789 132.007L5.3291 131.863L5.5752 131.729C14.722 126.76 23.6471 123.63 31.7949 120.827C36.7062 118.428 41.864 116.215 46.5049 114.196C51.6385 111.964 56.2883 109.903 60.5527 107.668C69.2966 103.085 74.2463 98.8415 76.6748 94.1973C85.6988 76.9377 92.2211 61.3289 93.8955 38.625C94.6409 28.5171 92.8817 14.1726 91.2373 0H136.587ZM123.786 57.3242C120.174 77.7678 113.073 93.6463 105.033 109.023C98.0416 122.395 86.0239 130.446 75.4092 136.01C70.7851 138.434 66.0025 140.591 61.5312 142.551C70.7083 143.522 79.3271 144.516 86.1865 145.406C101.134 147.346 111.224 154.338 119.005 162.29C122.66 166.025 125.907 170.079 128.7 173.574C131.638 177.25 134.189 180.458 137.037 183.532C141.58 188.435 145.33 193.334 148.454 198.172C148.527 196.701 148.615 195.209 148.722 193.696C150.167 173.243 163.962 157.538 175.967 146.712C182.263 141.034 188.928 135.953 194.755 131.617C198.082 129.141 200.999 127.003 203.553 125.078C193.833 124.523 182.8 123.426 175.208 120.479C160.102 114.617 150.317 101.694 143.653 91.0928C140.193 85.5875 137.066 79.8387 134.371 74.9531C131.542 69.8252 129.229 65.7251 126.992 62.4639C125.858 60.8106 124.792 59.092 123.786 57.3242Z" fill="#0C00EE"/>
</g>
<defs>
<clipPath id="clip0_17_29">
<rect width="256" height="256" rx="16" fill="white"/>
</clipPath>
</defs>
</svg>
