<svg width="437" height="499" viewBox="0 0 437 499" fill="none" xmlns="http://www.w3.org/2000/svg">
<rect x="1" y="1" width="435" height="497" fill="#F0EFED"/>
<rect x="1" y="1" width="435" height="497" stroke="#7B8086" stroke-width="2"/>
<path d="M58.4039 42.7966C55.6651 41.1168 53.0815 40.247 50.4758 40.0914C45.4749 39.7928 39.694 41.5099 36.5295 42.3742C33.2546 43.2686 31.6794 45.5387 30.4975 48.0843C29.2521 50.7666 32.0439 55.4098 33.671 57.9859C35.2035 60.4124 39.5552 59.9467 43.9547 59.5409C46.4341 59.3122 48.2155 56.8696 50.79 55.676C51.9755 55.1264 53.2949 54.9021 54.8079 55.3056C57.83 56.1117 60.5611 59.6539 62.1482 62.7449C62.8812 64.1724 62.5117 65.8043 61.9199 67.4343C59.8338 73.1796 54.9655 75.3614 51.5879 77.0817C45.8831 79.9873 42.2172 77.5894 39.4541 76.6364C38.1868 76.1993 36.9179 76.0611 35.7721 75.6056C35.2483 75.2668 34.8417 74.7097 34.4099 74.0444C33.978 73.379 33.5332 72.6224 32.401 70.6964" stroke="#0506DE" stroke-width="4" stroke-linecap="round" stroke-linejoin="round"/>
<path d="M70.0383 60.2875C71.6327 60.0617 75.8362 59.9679 81.4968 60.0554C83.5983 60.0879 86.5277 59.4721 88.2032 58.8585C89.8787 58.245 90.1919 57.4481 90.2597 56.5493C90.3276 55.6504 90.1404 54.6737 89.6337 53.8524C88.5902 52.1613 86.6398 51.1032 84.9193 50.0814C80.5339 47.4771 74.2699 51.5708 71.1109 53.5422C68.3346 55.2747 68.8464 60.1828 68.8226 64.3702C68.8093 66.7211 69.988 68.6476 71.1849 69.9944C72.3817 71.3412 74.0412 72.6338 76.1288 73.729C78.1033 74.7649 81.0151 74.6938 84.0576 74.0121C86.7904 71.6032 88.6001 68.8159 90.8373 66.3443C91.2963 65.6447 91.6095 64.8478 91.7905 63.2869" stroke="#0506DE" stroke-width="4" stroke-linecap="round" stroke-linejoin="round"/>
<path d="M100.02 69.214C99.9293 68.7409 99.8387 68.2678 99.1576 64.7126C98.4765 61.1573 97.2077 54.5342 96.4819 51.6184C95.7561 48.7026 95.6117 49.6949 95.6003 51.434" stroke="#0506DE" stroke-width="4" stroke-linecap="round" stroke-linejoin="round"/>
<path d="M132.321 53.3644C129.625 53.7463 124.345 55.376 121.779 57.079C120.444 57.9656 119.764 59.5926 118.905 60.8233C117.945 62.1994 118.382 64.8994 119.285 67.5508C120.728 71.7894 125.565 71.2378 128.686 71.915C131.942 72.6218 134.566 72.4216 136.269 71.9599C142.898 70.1627 133.687 50.0708 132.12 46.0603C130.473 41.8434 129.293 37.5582 127.778 32.7586C127.353 31.5861 126.955 30.5401 126.524 28.8206C126.093 27.1012 125.641 24.74 124.343 21.0888" stroke="#0506DE" stroke-width="4" stroke-linecap="round" stroke-linejoin="round"/>
<path d="M175.161 64.6718C174.221 59.7668 172.04 50.3981 170.488 46.3808C169.653 44.2203 168.892 42.1305 168.331 41.2385C168.296 44.1286 169.481 48.2958 170.939 52.3265C171.239 53.3749 171.462 54.5394 172.533 57.07" stroke="#0506DE" stroke-width="4" stroke-linecap="round" stroke-linejoin="round"/>
<path d="M174.253 59.9327C174.271 56.2307 173.963 52.116 174.63 47.3799C174.796 46.1991 174.79 45.0451 175.108 44.1795C175.426 43.3139 176.041 42.7678 176.752 42.6602C180.123 42.1497 184.363 45.7336 186.723 49.1126C189.052 52.4465 188.48 56.9718 188.994 59.6944C189.867 64.3183 188.314 47.3017 188.285 43.3526C188.275 41.9764 191.712 43.5453 193.62 44.6622C196.08 47.3282 197.798 51.2433 199.197 57.8807C199.364 59.3799 199.301 60.3066 199.237 61.2615" stroke="#0506DE" stroke-width="4" stroke-linecap="round" stroke-linejoin="round"/>
<path d="M206.312 49.4165C210.49 48.8248 217.993 47.327 220.848 45.2783C221.516 44.7986 221.677 43.958 221.56 43.3123C221.315 41.9642 218.858 40.4031 215.971 38.8347C211.702 36.5154 208.552 40.7423 206.353 42.8134C205.258 43.8451 204.236 45.3081 203.428 47.2843C202.59 49.3354 203.014 52.5001 204.065 55.752C205.577 60.4323 211.076 60.8158 214.833 61.2788C220.409 61.966 223.361 58.4298 225.816 56.5464C226.912 55.5147 227.766 54.293 228.132 52.8177C228.203 52.0366 228.04 51.1896 227.873 50.3169" stroke="#0506DE" stroke-width="4" stroke-linecap="round" stroke-linejoin="round"/>
<path d="M66.7593 95.4732C67.6768 94.4786 71.6065 93.3914 75.6942 94.1012C80.7271 94.9751 81.3096 101.303 83.2955 105.725C83.7791 106.802 84.0874 107.757 83.9009 108.497C83.5271 109.978 81.8378 110.987 81.3912 111.731C80.9578 112.453 82.2018 109.297 81.5705 107.624C80.1958 103.98 74.5191 104.201 70.6214 104.313C66.8013 104.424 64.982 107.873 64.3723 109.7C64.0229 110.748 64.3168 112.231 64.8821 113.074C66.9691 116.189 71.8669 115.66 76.0604 116.134C77.2036 116.223 78.4462 116.185 79.4401 115.914C80.434 115.644 81.1415 115.143 82.5659 113.878" stroke="#0506DE" stroke-width="4" stroke-linecap="round" stroke-linejoin="round"/>
<path d="M92.4636 112.698C91.9047 111.495 90.2781 108.695 89.0837 105.459C87.7636 101.883 87.3025 97.7552 86.1081 94.5192C85.8084 93.7072 85.5132 92.9073 85.2134 92.0952C84.9137 91.2832 84.6185 90.4833 83.614 89.6807" stroke="#0506DE" stroke-width="4" stroke-linecap="round" stroke-linejoin="round"/>
<path d="M91.4622 110.686C90.7221 107.995 89.3144 103.045 88.8086 97.732C88.6197 95.7481 89.7816 95.2031 90.7729 94.6356C92.8329 93.4561 95.3953 92.709 97.9179 92.5794C99.8534 92.4799 101.438 93.8194 102.991 95.0037C103.725 95.6597 104.349 96.4278 105.134 99.3186C105.918 102.209 106.845 107.2 108.628 112.875" stroke="#0506DE" stroke-width="4" stroke-linecap="round" stroke-linejoin="round"/>
<path d="M133.477 99.6335C136.538 99.4464 140.988 100.302 147.759 99.4813C149.22 99.3043 149.657 98.1035 149.85 97.2023C150.043 96.3011 149.859 95.3413 149.35 94.5359C148.301 92.8774 146.559 91.813 145.031 90.6627C143.144 89.2431 140.194 89.7196 137.686 90.3214C133.702 91.2769 131.677 96.3781 130.13 100.22C129.43 101.958 130.03 104.095 130.608 105.877C131.155 107.562 133 108.409 134.785 109.027C139.877 110.788 146.197 108.781 150.047 108.243C150.821 107.887 151.42 107.309 151.982 106.483C152.545 105.656 153.052 104.598 154.133 102.683" stroke="#0506DE" stroke-width="4" stroke-linecap="round" stroke-linejoin="round"/>
<path d="M161.364 103.396C161.321 103.172 161.278 102.948 161.333 102.362C161.388 101.776 161.542 100.834 161.256 98.4443C160.971 96.0551 160.241 92.2474 160.086 86.1482" stroke="#0506DE" stroke-width="4" stroke-linecap="round" stroke-linejoin="round"/>
<path d="M161.799 103.021C162.665 101.452 159.27 97.4462 162.626 92.3695C163.847 90.5228 166.031 89.932 168.694 89.7946C171.214 89.6646 173.245 90.8437 174.745 91.9578C176.597 93.3328 177.252 97.0436 177.886 99.7452C178.436 102.093 178.811 92.992 180.162 89.0316C180.457 88.1661 181.591 87.9751 182.53 87.9584C184.467 87.9239 186.072 89.2667 187.162 90.6824C188.071 92.3636 188.894 94.1953 189.865 97.4306C190.431 99.7637 191.147 103.5 192.569 107.253" stroke="#0506DE" stroke-width="4" stroke-linecap="round" stroke-linejoin="round"/>
<path d="M199.292 85.0832C201.446 84.1773 204.822 83.3896 208.556 83.4615C210 83.4893 210.626 84.9708 211.143 86.1174C212.148 88.3499 212.834 91.3399 213.238 94.4641C213.417 95.844 213.097 96.7645 212.688 96.6858C211.508 96.4588 210.512 93.5167 209.279 92.1756C206.515 89.1678 202.976 90.9337 200.173 92.6871C198.444 93.7688 198.07 97.0814 197.739 98.9443C197.593 99.7667 198.353 100.674 199.04 101.191C202.185 102.27 205.833 102.964 211.365 102.19C212.468 101.733 212.922 101.068 213.963 100.301" stroke="#0506DE" stroke-width="4" stroke-linecap="round" stroke-linejoin="round"/>
<path d="M222.105 85.3552C222.539 87.6218 223.023 90.1493 223.208 92.5887C223.133 93.6681 222.713 94.426 222.447 95.2892C222.18 96.1523 222.079 97.0979 223.202 100.015" stroke="#0506DE" stroke-width="4" stroke-linecap="round" stroke-linejoin="round"/>
<path d="M233.938 66.2563C232.746 78.6006 233.59 85.4577 234.215 90.5978C234.486 92.8247 234.657 94.778 235.579 96.511C236.684 97.9716 238.075 99.0295 239.642 99.801C240.432 100.19 241.21 100.572 244.228 101.4" stroke="#0506DE" stroke-width="4" stroke-linecap="round" stroke-linejoin="round"/>
<path d="M221.629 77.579L220.642 77.7188" stroke="#0506DE" stroke-width="4" stroke-linecap="round" stroke-linejoin="round"/>
<path d="M259.353 56.4383C260.558 62.7288 261.05 67.6263 261.741 73.0112C261.833 75.239 262.213 78.4196 262.823 82.1875C263.019 83.7955 262.986 84.7861 263.231 87.2613" stroke="#0506DE" stroke-width="4" stroke-linecap="round" stroke-linejoin="round"/>
<path d="M98.1096 58.1058C98.2291 57.4568 98.9103 55.8833 99.9116 54.3614C100.147 54.0041 100.333 53.6681 101.078 53.4006C104.725 52.0905 107.019 53.242 108.67 53.8006C110.319 54.3587 110.811 56.3004 111.745 60.1814C112.344 62.6732 111.678 64.6456 111.107 66.159C110.572 67.8769 110.469 69.2669 110.417 70.2779C110.386 70.7619 110.345 71.1869 110.422 72.2433" stroke="#0506DE" stroke-width="4" stroke-linecap="round"/>
<path d="M264.361 95.9453L264.819 98.3346" stroke="#0506DE" stroke-width="4" stroke-linecap="round"/>
<path d="M277.387 86.8897C296.154 91.8851 309.989 94.2895 317.714 93.8142C331.417 92.9713 344.643 86.0371 354.19 82.2423C363.199 78.6611 370.607 73.641 376.028 69.2237C383.38 63.2322 388.926 53.5874 391.391 48.1031C393.662 39.09 394.533 25.4722 394.192 20.588C393.924 18.3993 393.463 16.799 392.273 13.6527" stroke="#0506DE" stroke-width="4" stroke-linecap="round"/>
<path d="M372.011 46.3105C377.452 39.1253 380.51 33.9969 382.597 28.4037C384.417 23.529 386.109 18.7657 388.227 14.2288C389.051 12.4644 390.419 12.3873 391.477 12.3417C392.536 12.296 393.513 12.4363 394.375 12.9437C397.535 16.3355 401.143 21.3329 404.267 26.9023C404.991 28.1011 405.71 28.9714 407.556 30.2594" stroke="#0506DE" stroke-width="4" stroke-linecap="round"/>
</svg>
